<svg id="Layer_1" data-name="Layer 1" xmlns="http://www.w3.org/2000/svg" viewBox="0 0 256 256"><defs><style>.cls-1{fill:#272727;}.cls-2{fill:#e2bc40;}</style></defs><rect class="cls-1" width="256" height="256"/><polygon class="cls-2" points="114.73 103.08 110.95 105.27 110.27 105.66 107.16 107.45 107.16 131.52 108.31 132.19 110.95 133.71 110.95 129.35 110.93 129.34 110.93 120.82 118.53 120.82 118.53 117.03 110.93 117.03 110.93 109.63 110.95 109.62 111.25 109.45 114.73 107.44 114.73 113.24 118.53 113.24 118.53 100.89 116.83 101.87 114.73 103.08"/><path class="cls-2" d="M128,95.42l-5.69,3.28v37.22l.11.06h-.11v4.29l3.79,2.19V120.82h3.79v21.64l3.8-2.19V136h-.11l.11-.07V98.7l-3.8-2.19Zm1.89,21.6H126.1V100.87l1.9-1.09,1.89,1.09Z"/><polygon class="cls-2" points="148.84 113.24 148.84 107.45 145.73 105.66 145.05 105.27 141.26 103.08 139.17 101.87 137.47 100.89 137.47 120.82 145.07 120.82 145.07 129.34 145.05 129.35 141.26 131.54 141.26 124.61 137.47 124.61 137.47 138.09 141.13 135.98 141.26 135.9 145.05 133.71 147.69 132.19 148.84 131.52 148.84 117.03 141.26 117.03 141.26 107.44 144.75 109.45 145.05 109.62 145.07 109.63 145.07 113.24 148.84 113.24"/><path class="cls-2" d="M48.1,160.5h-1v-7.25h5.11v.9H48.1Zm-.1-3.82h3.74v.89H48Z"/><path class="cls-2" d="M58.71,160.58a3,3,0,0,1-2.24-.82,3.21,3.21,0,0,1-.82-2.39v-4.12h1v4.08a2.47,2.47,0,0,0,.54,1.77,1.93,1.93,0,0,0,1.5.56,2,2,0,0,0,1.52-.56,2.51,2.51,0,0,0,.53-1.77v-4.08h1v4.12a3.25,3.25,0,0,1-.82,2.39A3,3,0,0,1,58.71,160.58Z"/><path class="cls-2" d="M66,160.5v-7.25h1v6.35h3.92v.9Z"/><path class="cls-2" d="M74.19,160.5v-7.25h1v6.35h3.92v.9Z"/><path class="cls-2" d="M86.16,160.5l3.28-7.25h1l3.29,7.25H92.67l-2.93-6.67h.42l-2.93,6.67Zm1.4-1.81.28-.83h4.08l.3.83Z"/><path class="cls-2" d="M99.75,160.58a3,3,0,0,1-2.25-.82,3.25,3.25,0,0,1-.81-2.39v-4.12h1v4.08a2.51,2.51,0,0,0,.53,1.77,2.33,2.33,0,0,0,3,0,2.51,2.51,0,0,0,.53-1.77v-4.08h1v4.12a3.25,3.25,0,0,1-.81,2.39A3,3,0,0,1,99.75,160.58Z"/><path class="cls-2" d="M108.31,160.5v-6.35h-2.48v-.9h6v.9h-2.49v6.35Z"/><path class="cls-2" d="M118.18,160.58a4,4,0,0,1-1.53-.28,3.49,3.49,0,0,1-1.23-.78,3.77,3.77,0,0,1-.81-4.11,3.62,3.62,0,0,1,2-2,4.09,4.09,0,0,1,1.54-.28,4,4,0,0,1,1.53.28,3.67,3.67,0,0,1,1.22.77,3.55,3.55,0,0,1,.81,1.18,4.05,4.05,0,0,1,0,3,3.41,3.41,0,0,1-.81,1.17,3.54,3.54,0,0,1-1.22.78A4.17,4.17,0,0,1,118.18,160.58Zm0-.92a2.94,2.94,0,0,0,1.12-.21,2.54,2.54,0,0,0,.89-.58,2.71,2.71,0,0,0,.59-.89,2.8,2.8,0,0,0,.21-1.1,2.89,2.89,0,0,0-.21-1.11,2.82,2.82,0,0,0-.59-.89,2.69,2.69,0,0,0-.89-.58,3.09,3.09,0,0,0-2.24,0,2.69,2.69,0,0,0-1.49,1.47,2.89,2.89,0,0,0-.21,1.11,2.8,2.8,0,0,0,.21,1.1,2.59,2.59,0,0,0,.6.89,2.54,2.54,0,0,0,.89.58A2.94,2.94,0,0,0,118.18,159.66Z"/><path class="cls-2" d="M134,160.58a5,5,0,0,1-1.59-.25,3.28,3.28,0,0,1-1.19-.66l.38-.81a3.1,3.1,0,0,0,1.06.6,3.78,3.78,0,0,0,1.34.24,3.17,3.17,0,0,0,1-.14,1.23,1.23,0,0,0,.58-.4,1,1,0,0,0,.19-.58.79.79,0,0,0-.25-.6,1.74,1.74,0,0,0-.63-.36,6.1,6.1,0,0,0-.85-.25c-.31-.06-.63-.15-.94-.24a3.89,3.89,0,0,1-.86-.36,1.65,1.65,0,0,1-.62-.58,1.72,1.72,0,0,1-.24-.95,2,2,0,0,1,.29-1,2.09,2.09,0,0,1,.91-.75,3.76,3.76,0,0,1,1.57-.29,4.83,4.83,0,0,1,1.25.17,3.56,3.56,0,0,1,1.08.47l-.34.83a3.21,3.21,0,0,0-1-.45,4,4,0,0,0-1-.14,2.58,2.58,0,0,0-1,.16,1.24,1.24,0,0,0-.58.41,1,1,0,0,0-.18.58.76.76,0,0,0,.25.61,1.74,1.74,0,0,0,.63.36c.26.09.54.17.85.25l.94.24a4.42,4.42,0,0,1,.86.35,1.91,1.91,0,0,1,.62.58,1.65,1.65,0,0,1,.24.93,1.84,1.84,0,0,1-.3,1,2,2,0,0,1-.93.76A3.77,3.77,0,0,1,134,160.58Z"/><path class="cls-2" d="M143.64,160.58a4.13,4.13,0,0,1-1.54-.28,3.45,3.45,0,0,1-1.22-.78,3.41,3.41,0,0,1-.81-1.17,3.87,3.87,0,0,1,0-2.94,3.55,3.55,0,0,1,.81-1.18,3.75,3.75,0,0,1,1.22-.78,4.35,4.35,0,0,1,3.07,0,3.77,3.77,0,0,1,1.22.77,3.55,3.55,0,0,1,.81,1.18,4.05,4.05,0,0,1,0,3,3.41,3.41,0,0,1-.81,1.17,3.64,3.64,0,0,1-1.22.78A4.24,4.24,0,0,1,143.64,160.58Zm0-.92a2.89,2.89,0,0,0,1.11-.21,2.45,2.45,0,0,0,.89-.58,2.57,2.57,0,0,0,.59-.89,2.64,2.64,0,0,0,.22-1.1,2.72,2.72,0,0,0-.22-1.11,2.66,2.66,0,0,0-.59-.89,2.59,2.59,0,0,0-.89-.58,3.07,3.07,0,0,0-2.23,0,2.61,2.61,0,0,0-1.49,1.47,2.89,2.89,0,0,0-.21,1.11A2.8,2.8,0,0,0,141,158a2.71,2.71,0,0,0,.59.89,2.68,2.68,0,0,0,.9.58A2.9,2.9,0,0,0,143.64,159.66Z"/><path class="cls-2" d="M151.14,160.5v-7.25h1v6.35h3.92v.9Z"/><path class="cls-2" d="M162.23,160.58a3,3,0,0,1-2.24-.82,3.21,3.21,0,0,1-.82-2.39v-4.12h1v4.08a2.47,2.47,0,0,0,.54,1.77,1.93,1.93,0,0,0,1.5.56,2,2,0,0,0,1.52-.56,2.51,2.51,0,0,0,.53-1.77v-4.08h1v4.12a3.25,3.25,0,0,1-.81,2.39A3,3,0,0,1,162.23,160.58Z"/><path class="cls-2" d="M170.79,160.5v-6.35h-2.48v-.9h6v.9h-2.48v6.35Z"/><path class="cls-2" d="M177.5,160.5v-7.25h1v7.25Z"/><path class="cls-2" d="M186.05,160.58a4.09,4.09,0,0,1-1.54-.28,3.58,3.58,0,0,1-1.23-.78,3.53,3.53,0,0,1-.8-1.17,3.87,3.87,0,0,1,0-2.94,3.68,3.68,0,0,1,.8-1.18,3.91,3.91,0,0,1,1.23-.78,4,4,0,0,1,1.54-.28,4,4,0,0,1,1.52.28,3.49,3.49,0,0,1,2,2,3.92,3.92,0,0,1,0,3,3.53,3.53,0,0,1-.8,1.17,3.58,3.58,0,0,1-1.23.78A4.15,4.15,0,0,1,186.05,160.58Zm0-.92a2.89,2.89,0,0,0,1.11-.21,2.54,2.54,0,0,0,.89-.58,2.71,2.71,0,0,0,.59-.89,2.8,2.8,0,0,0,.21-1.1,2.89,2.89,0,0,0-.21-1.11,2.82,2.82,0,0,0-.59-.89,2.69,2.69,0,0,0-.89-.58,2.89,2.89,0,0,0-1.11-.21,3,3,0,0,0-1.13.21,2.79,2.79,0,0,0-.89.58,2.85,2.85,0,0,0-.6.89,2.89,2.89,0,0,0-.21,1.11,2.8,2.8,0,0,0,.21,1.1,2.74,2.74,0,0,0,.6.89,2.64,2.64,0,0,0,.89.58A3,3,0,0,0,186.05,159.66Z"/><path class="cls-2" d="M193.54,160.5v-7.25h.85l4.79,6h-.44v-6h1v7.25h-.85l-4.79-5.95h.45v5.95Z"/><path class="cls-2" d="M206.13,160.58a5,5,0,0,1-1.59-.25,3.28,3.28,0,0,1-1.19-.66l.39-.81a3,3,0,0,0,1,.6,3.83,3.83,0,0,0,1.34.24,3.17,3.17,0,0,0,1-.14,1.18,1.18,0,0,0,.58-.4.92.92,0,0,0,.19-.58.81.81,0,0,0-.24-.6,1.88,1.88,0,0,0-.64-.36,5.72,5.72,0,0,0-.85-.25c-.31-.06-.62-.15-.94-.24a3.89,3.89,0,0,1-.86-.36,1.81,1.81,0,0,1-.62-.58,1.72,1.72,0,0,1-.24-.95,1.9,1.9,0,0,1,.3-1,2,2,0,0,1,.91-.75,3.71,3.71,0,0,1,1.56-.29,5,5,0,0,1,1.26.17,3.61,3.61,0,0,1,1.07.47l-.34.83a3.21,3.21,0,0,0-1-.45,4,4,0,0,0-1-.14,2.62,2.62,0,0,0-1,.16,1.2,1.2,0,0,0-.57.41.94.94,0,0,0-.19.58.76.76,0,0,0,.25.61,1.74,1.74,0,0,0,.63.36c.26.09.54.17.85.25s.63.15.94.24a4.42,4.42,0,0,1,.86.35,1.85,1.85,0,0,1,.63.58,1.73,1.73,0,0,1,.23.93,1.84,1.84,0,0,1-.3,1,2.07,2.07,0,0,1-.92.76A3.85,3.85,0,0,1,206.13,160.58Z"/></svg>