<svg id="Layer_1" data-name="Layer 1" xmlns="http://www.w3.org/2000/svg" viewBox="0 0 256 256"><defs><style>.cls-1{fill:#272727;}.cls-2{fill:#e2bc40;}.cls-3{fill:none;stroke:#e2bc40;stroke-miterlimit:10;stroke-width:0.5px;}</style></defs><rect class="cls-1" width="256" height="256"/><polygon class="cls-2" points="115.49 102.34 112.36 104.14 111.8 104.47 109.24 105.95 109.24 125.83 110.19 126.37 112.36 127.63 112.36 124.03 112.35 124.02 112.35 116.99 118.62 116.99 118.62 113.85 112.35 113.85 112.35 107.75 112.36 107.74 112.62 107.59 115.49 105.93 115.49 110.72 118.62 110.72 118.62 100.53 117.22 101.34 115.49 102.34"/><path class="cls-2" d="M126.45,96l-4.7,2.71v30.73l.09.05h-.09v3.55l3.13,1.81V117H128v17.87l3.13-1.81V129.5h-.09l.09-.05V98.72L128,96.91ZM128,113.85h-3.13V100.51l1.57-.9,1.56.9Z"/><polygon class="cls-2" points="143.66 110.72 143.66 105.95 141.09 104.47 140.53 104.14 137.4 102.34 135.67 101.34 134.27 100.53 134.27 116.99 140.54 116.99 140.54 124.02 140.53 124.03 137.4 125.84 137.4 120.12 134.27 120.12 134.27 131.25 137.29 129.5 137.4 129.44 140.53 127.63 142.71 126.37 143.66 125.83 143.66 113.85 137.4 113.85 137.4 105.93 140.28 107.59 140.53 107.74 140.54 107.75 140.54 110.72 143.66 110.72"/><path class="cls-2" d="M89.05,150.69H87.11v-8.4h6.35v1.56H89.05Zm-.14-4.62h4v1.56h-4Z"/><path class="cls-2" d="M100.07,150.83a3.47,3.47,0,0,1-3.8-3.84v-4.7h1.94v4.63a2.48,2.48,0,0,0,.49,1.73,2.06,2.06,0,0,0,2.76,0,2.48,2.48,0,0,0,.49-1.73v-4.63h1.92V147a3.47,3.47,0,0,1-3.8,3.84Z"/><path class="cls-2" d="M107.35,150.69v-8.4h2v6.81h4.21v1.59Z"/><path class="cls-2" d="M116.16,150.69v-8.4h2v6.81h4.21v1.59Z"/><path class="cls-2" d="M128.82,150.69l3.75-8.4h1.92l3.75,8.4h-2l-3.07-7.42h.77l-3.09,7.42Zm1.87-1.8.52-1.48h4.32l.53,1.48Z"/><path class="cls-2" d="M144.23,150.83a3.47,3.47,0,0,1-3.8-3.84v-4.7h1.94v4.63a2.48,2.48,0,0,0,.49,1.73,2.06,2.06,0,0,0,2.76,0,2.48,2.48,0,0,0,.49-1.73v-4.63H148V147a3.47,3.47,0,0,1-3.8,3.84Z"/><path class="cls-2" d="M153.11,150.69v-6.82h-2.69v-1.58h7.32v1.58h-2.69v6.82Z"/><path class="cls-2" d="M164.31,150.83a5.28,5.28,0,0,1-1.85-.32,4.45,4.45,0,0,1-1.46-.91,4.4,4.4,0,0,1-1-1.38,4.57,4.57,0,0,1,0-3.46,4.06,4.06,0,0,1,1-1.38,4.29,4.29,0,0,1,1.46-.91,5,5,0,0,1,1.82-.33,4.89,4.89,0,0,1,1.83.33,4.39,4.39,0,0,1,1.46.91,4.24,4.24,0,0,1,1,1.37,4.48,4.48,0,0,1,0,3.47,4.18,4.18,0,0,1-1,1.38,4.56,4.56,0,0,1-1.46.91A5.06,5.06,0,0,1,164.31,150.83Zm0-1.65a2.68,2.68,0,0,0,1-.2,2.36,2.36,0,0,0,.84-.55,2.45,2.45,0,0,0,.55-.85,2.75,2.75,0,0,0,.2-1.09,2.72,2.72,0,0,0-.2-1.09,2.49,2.49,0,0,0-.55-.86,2.36,2.36,0,0,0-.83-.55,2.76,2.76,0,0,0-1.05-.19,2.66,2.66,0,0,0-1,.19,2.5,2.5,0,0,0-.84.55,2.67,2.67,0,0,0-.56.86,3.19,3.19,0,0,0,0,2.17,2.56,2.56,0,0,0,.56.86,2.23,2.23,0,0,0,.83.55A2.75,2.75,0,0,0,164.29,149.18Z"/><path class="cls-2" d="M100.38,160a3.33,3.33,0,0,1-1.18-.21,2.28,2.28,0,0,1-.86-.55l.19-.3a2.39,2.39,0,0,0,.79.5,2.86,2.86,0,0,0,1.06.2,2.37,2.37,0,0,0,.91-.15,1.17,1.17,0,0,0,.53-.39,1,1,0,0,0,.17-.56.8.8,0,0,0-.19-.57,1.41,1.41,0,0,0-.5-.35,6,6,0,0,0-.68-.21l-.75-.19a3.52,3.52,0,0,1-.69-.26,1.41,1.41,0,0,1-.5-.44,1.27,1.27,0,0,1-.18-.71,1.37,1.37,0,0,1,.2-.74,1.54,1.54,0,0,1,.65-.54,2.62,2.62,0,0,1,1.13-.21,2.94,2.94,0,0,1,.92.14,2.74,2.74,0,0,1,.77.36l-.15.33a2.49,2.49,0,0,0-.76-.35,2.74,2.74,0,0,0-.78-.12,2.3,2.3,0,0,0-.89.15,1.15,1.15,0,0,0-.52.41,1,1,0,0,0-.17.56.9.9,0,0,0,.19.58,1.42,1.42,0,0,0,.5.34,4.3,4.3,0,0,0,.69.22c.25,0,.5.12.74.18a3.85,3.85,0,0,1,.68.26,1.36,1.36,0,0,1,.51.44,1.16,1.16,0,0,1,.19.7,1.3,1.3,0,0,1-.22.73,1.46,1.46,0,0,1-.66.55A2.81,2.81,0,0,1,100.38,160Z"/><path class="cls-2" d="M107.76,160a3.15,3.15,0,0,1-1.16-.21,2.8,2.8,0,0,1-1.54-1.51,2.94,2.94,0,0,1-.21-1.12,2.9,2.9,0,0,1,.21-1.12,2.8,2.8,0,0,1,1.54-1.51,3.31,3.31,0,0,1,2.32,0,2.77,2.77,0,0,1,1.53,1.5,3,3,0,0,1,0,2.26,2.77,2.77,0,0,1-1.53,1.5A3.15,3.15,0,0,1,107.76,160Zm0-.38a2.64,2.64,0,0,0,1-.18,2.27,2.27,0,0,0,.79-.52,2.45,2.45,0,0,0,.53-.78,2.63,2.63,0,0,0,.19-1,2.59,2.59,0,0,0-.19-1,2.35,2.35,0,0,0-.53-.78,2.27,2.27,0,0,0-.79-.52,2.81,2.81,0,0,0-2,0,2.4,2.4,0,0,0-.8.52,2.35,2.35,0,0,0-.53.78,2.59,2.59,0,0,0-.18,1,2.63,2.63,0,0,0,.18,1,2.45,2.45,0,0,0,.53.78,2.4,2.4,0,0,0,.8.52A2.64,2.64,0,0,0,107.76,159.61Z"/><path class="cls-2" d="M113.69,160v-5.6h.41v5.23h3.22V160Z"/><path class="cls-2" d="M122.05,160a2.17,2.17,0,0,1-1.64-.61,2.47,2.47,0,0,1-.6-1.81v-3.22h.41v3.21a2.18,2.18,0,0,0,.48,1.55,2.09,2.09,0,0,0,2.71,0,2.18,2.18,0,0,0,.48-1.55v-3.21h.41v3.22a2.47,2.47,0,0,1-.6,1.81A2.2,2.2,0,0,1,122.05,160Z"/><path class="cls-2" d="M128.76,160v-5.23h-2v-.37h4.44v.37h-2V160Z"/><path class="cls-2" d="M133.79,160v-5.6h.41V160Z"/><path class="cls-2" d="M140.13,160a3.15,3.15,0,0,1-1.16-.21,2.72,2.72,0,0,1-1.54-1.51,2.94,2.94,0,0,1-.21-1.12,2.9,2.9,0,0,1,.21-1.12,2.72,2.72,0,0,1,1.54-1.51,3.15,3.15,0,0,1,1.16-.21,3.09,3.09,0,0,1,1.15.21,2.66,2.66,0,0,1,.93.6,2.7,2.7,0,0,1,.61.9,3,3,0,0,1,0,2.26,2.7,2.7,0,0,1-.61.9,2.66,2.66,0,0,1-.93.6A3.09,3.09,0,0,1,140.13,160Zm0-.38a2.68,2.68,0,0,0,1-.18,2.36,2.36,0,0,0,.79-.52,2.45,2.45,0,0,0,.53-.78,2.63,2.63,0,0,0,.18-1,2.59,2.59,0,0,0-.18-1,2.43,2.43,0,0,0-1.32-1.3,2.68,2.68,0,0,0-1-.18,2.64,2.64,0,0,0-1,.18,2.4,2.4,0,0,0-.8.52,2.35,2.35,0,0,0-.53.78,2.59,2.59,0,0,0-.19,1,2.63,2.63,0,0,0,.19,1,2.45,2.45,0,0,0,.53.78,2.4,2.4,0,0,0,.8.52A2.64,2.64,0,0,0,140.13,159.61Z"/><path class="cls-2" d="M146.05,160v-5.6h.35l4,5.1h-.18v-5.1h.4V160h-.33l-4-5.1h.18V160Z"/><path class="cls-2" d="M155.64,160a3.29,3.29,0,0,1-1.18-.21,2.2,2.2,0,0,1-.86-.55l.18-.3a2.62,2.62,0,0,0,.79.5,2.89,2.89,0,0,0,1.06.2,2.39,2.39,0,0,0,.92-.15,1.29,1.29,0,0,0,.53-.39,1,1,0,0,0,.17-.56.85.85,0,0,0-.19-.57,1.36,1.36,0,0,0-.51-.35,5.46,5.46,0,0,0-.68-.21l-.74-.19a3.52,3.52,0,0,1-.69-.26,1.26,1.26,0,0,1-.5-.44,1.19,1.19,0,0,1-.19-.71,1.38,1.38,0,0,1,.21-.74,1.48,1.48,0,0,1,.65-.54,2.62,2.62,0,0,1,1.13-.21,2.88,2.88,0,0,1,.91.14,2.62,2.62,0,0,1,.77.36l-.15.33a2.44,2.44,0,0,0-.75-.35,2.74,2.74,0,0,0-.78-.12,2.26,2.26,0,0,0-.89.15,1.1,1.1,0,0,0-.52.41,1,1,0,0,0-.17.56.85.85,0,0,0,.19.58,1.34,1.34,0,0,0,.5.34,4.17,4.17,0,0,0,.68.22c.26,0,.5.12.75.18a4.18,4.18,0,0,1,.68.26,1.26,1.26,0,0,1,.5.44,1.16,1.16,0,0,1,.2.7,1.38,1.38,0,0,1-.22.73,1.52,1.52,0,0,1-.66.55A2.88,2.88,0,0,1,155.64,160Z"/><line class="cls-3" x1="87.11" y1="156.91" x2="94.44" y2="156.91"/><line class="cls-3" x1="161.5" y1="156.91" x2="168.83" y2="156.91"/></svg>